HIERARCHY
ROOT Hips
{
	OFFSET -0.001795 -0.223333 0.028219
	CHANNELS 6 Xposition Yposition Zposition Zrotation Yrotation Xrotation 
	JOINT LeftUpLeg
	{
		OFFSET 0.069520 -0.091406 -0.006815
		CHANNELS 3 Zrotation Yrotation Xrotation
		JOINT LeftLeg
		{
			OFFSET 0.034277 -0.375199 -0.004496
			CHANNELS 3 Zrotation Yrotation Xrotation
			JOINT LeftFoot
			{
				OFFSET -0.013596 -0.397961 -0.043693
				CHANNELS 3 Zrotation Yrotation Xrotation
				JOINT LeftToe
				{
					OFFSET 0.026358 -0.055791 0.119288
					CHANNELS 3 Zrotation Yrotation Xrotation
					End Site
					{
						OFFSET 0.000000 0.000000 0.000000
					}
				}
			}
		}
	}
	JOINT RightUpLeg
	{
		OFFSET -0.067670 -0.090522 -0.004320
		CHANNELS 3 Zrotation Yrotation Xrotation
		JOINT RightLeg
		{
			OFFSET -0.038290 -0.382569 -0.008850
			CHANNELS 3 Zrotation Yrotation Xrotation
			JOINT RightFoot
			{
				OFFSET 0.015774 -0.398415 -0.042312
				CHANNELS 3 Zrotation Yrotation Xrotation
				JOINT RightToe
				{
					OFFSET -0.025372 -0.048144 0.123348
					CHANNELS 3 Zrotation Yrotation Xrotation
					End Site
					{
						OFFSET 0.000000 0.000000 0.000000
					}
				}
			}
		}
	}
	JOINT Spine
	{
		OFFSET -0.002533 0.108963 -0.026696
		CHANNELS 3 Zrotation Yrotation Xrotation
		JOINT Spine1
		{
			OFFSET 0.005487 0.135180 0.001092
			CHANNELS 3 Zrotation Yrotation Xrotation
			JOINT Spine2
			{
				OFFSET 0.001457 0.052922 0.025425
				CHANNELS 3 Zrotation Yrotation Xrotation
				JOINT Neck
				{
					OFFSET -0.002778 0.213870 -0.042857
					CHANNELS 3 Zrotation Yrotation Xrotation
					JOINT Head
					{
						OFFSET 0.005152 0.064970 0.051349
						CHANNELS 3 Zrotation Yrotation Xrotation
						End Site
						{
							OFFSET 0.000000 0.000000 0.000000
						}
					}
				}
				JOINT LeftShoulder
				{
					OFFSET 0.078845 0.121749 -0.034090
					CHANNELS 3 Zrotation Yrotation Xrotation
					JOINT LeftArm
					{
						OFFSET 0.090977 0.030469 -0.008868
						CHANNELS 3 Zrotation Yrotation Xrotation
						JOINT LeftForeArm
						{
							OFFSET 0.259612 -0.012772 -0.027456
							CHANNELS 3 Zrotation Yrotation Xrotation
							JOINT LeftHand
							{
								OFFSET 0.249234 0.008986 -0.001171
								CHANNELS 3 Zrotation Yrotation Xrotation
								End Site
								{
									OFFSET 0.000000 0.000000 0.000000
								}
							}
						}
					}
				}
				JOINT RightShoulder
				{
					OFFSET -0.081759 0.118833 -0.038615
					CHANNELS 3 Zrotation Yrotation Xrotation
					JOINT RightArm
					{
						OFFSET -0.096012 0.032551 -0.009143
						CHANNELS 3 Zrotation Yrotation Xrotation
						JOINT RightForeArm
						{
							OFFSET -0.253742 -0.013329 -0.021401
							CHANNELS 3 Zrotation Yrotation Xrotation
							JOINT RightHand
							{
								OFFSET -0.255298 0.007772 -0.005559
								CHANNELS 3 Zrotation Yrotation Xrotation
								End Site
								{
									OFFSET 0.000000 0.000000 0.000000
								}
							}
						}
					}
				}
			}
		}
	}
}
MOTION
Frames: 7
Frame Time: 0.050000
-0.032653 0.953971 0.011884 -1.677669 38.304038 2.294369 7.619441 -0.964676 4.302339 -3.855954 -0.467696 -11.009065 7.636741 19.455454 20.842943 0.000000 0.000000 0.000000 -5.827608 -0.565578 0.917172 4.211031 -0.961827 -9.154661 -3.910810 -7.041468 21.739975 0.000000 0.000000 0.000000 4.855332 -1.734764 13.113162 -6.300544 1.876806 -28.808539 -1.345481 5.570075 28.211040 11.469653 -1.236984 -22.779817 0.000000 0.000000 0.000000 -10.993531 -8.320489 -2.092815 -55.220211 -8.076915 -5.598307 -2.502360 -24.653708 -0.008439 0.000000 0.000000 0.000000 23.297888 -6.812465 2.922234 58.456782 28.172875 5.809500 -4.944510 34.475581 2.488889 0.000000 0.000000 0.000000 
-0.033349 0.953696 0.011619 -1.597109 39.243946 2.101296 7.681326 -0.992685 4.212026 -4.065406 -0.497241 -10.806242 7.383023 19.144486 20.413337 0.000000 0.000000 0.000000 -5.878086 -0.624954 1.323060 4.286227 -0.983310 -9.149422 -4.424365 -7.736693 22.176172 0.000000 0.000000 0.000000 4.725734 -1.813093 13.619345 -6.340110 1.879241 -28.847295 -1.106866 5.534607 28.123796 11.500537 -1.163531 -22.856028 0.000000 0.000000 0.000000 -11.132072 -8.858629 -2.030158 -54.982623 -7.955531 -5.559358 -2.430978 -24.860252 -0.058751 0.000000 0.000000 0.000000 23.607398 -6.748204 3.190827 58.525819 27.998102 5.651528 -6.558328 33.929469 2.025964 0.000000 0.000000 0.000000 
-0.033965 0.953594 0.011328 -1.374917 39.971216 2.038496 7.746596 -1.013681 4.073024 -4.278921 -0.512730 -10.512380 7.243541 19.010219 20.352437 0.000000 0.000000 0.000000 -6.062212 -0.672950 1.449522 4.376474 -0.998576 -9.017884 -4.818811 -8.280191 22.182793 0.000000 0.000000 0.000000 4.599770 -1.867455 13.994745 -6.357340 1.889346 -28.825597 -1.048907 5.532712 27.977809 11.576630 -1.134339 -22.920043 0.000000 0.000000 0.000000 -11.006679 -9.275173 -1.903878 -54.860742 -8.052115 -5.480962 -2.607463 -25.095926 -0.058895 0.000000 0.000000 0.000000 23.989060 -6.755294 3.410752 58.383585 28.252704 5.647096 -8.177652 33.885733 1.660559 0.000000 0.000000 0.000000 
-0.034441 0.953519 0.011076 -1.272538 40.774007 1.930383 7.895307 -1.048598 3.882744 -4.571476 -0.562649 -10.474536 7.281283 19.067056 20.388171 0.000000 0.000000 0.000000 -6.012369 -0.711424 1.726322 4.321121 -1.006494 -9.134759 -5.200480 -8.772026 22.433881 0.000000 0.000000 0.000000 4.603611 -1.888652 14.065370 -6.287218 1.910479 -28.645608 -1.044580 5.468584 28.023969 11.587964 -1.124849 -22.733941 0.000000 0.000000 0.000000 -11.100846 -9.901324 -1.770657 -54.493449 -7.929917 -5.434058 -2.645386 -25.231766 -0.076556 0.000000 0.000000 0.000000 24.630305 -6.509379 3.898510 57.815566 28.878312 5.623867 -10.855249 34.264822 1.083360 0.000000 0.000000 0.000000 
-0.034896 0.953577 0.010873 -1.176425 41.168210 1.876665 7.916893 -1.055285 3.771230 -4.677741 -0.575499 -10.363783 7.344321 19.176588 20.600770 0.000000 0.000000 0.000000 -6.102891 -0.744393 1.882217 4.282182 -1.003989 -9.088798 -5.501910 -9.201701 22.575721 0.000000 0.000000 0.000000 4.549477 -1.903193 14.176302 -6.360326 1.900058 -28.807008 -0.957677 5.670525 28.166369 11.674589 -1.130877 -22.652578 0.000000 0.000000 0.000000 -11.167213 -10.134612 -1.802389 -54.312894 -7.854545 -5.405107 -2.803179 -25.191035 -0.071698 0.000000 0.000000 0.000000 25.030018 -6.460792 4.179375 57.400320 29.642301 5.795880 -12.710880 35.038864 0.736158 0.000000 0.000000 0.000000 
-0.035489 0.953688 0.010689 -1.154736 41.275167 1.702801 8.065165 -1.084489 3.802880 -4.750342 -0.588450 -10.381796 7.411009 19.268373 20.768316 0.000000 0.000000 0.000000 -5.960289 -0.752590 2.087658 4.088973 -0.986110 -9.239924 -5.751947 -9.597708 22.638331 0.000000 0.000000 0.000000 4.475438 -1.880987 14.136351 -6.223496 1.901147 -28.698009 -0.950031 5.864201 28.371138 11.639544 -1.101868 -22.497937 0.000000 0.000000 0.000000 -11.260491 -10.175787 -1.880556 -54.005538 -7.628916 -5.433903 -3.155984 -25.322692 -0.015882 0.000000 0.000000 0.000000 25.335448 -6.195182 4.540853 57.333830 30.473146 6.136552 -14.621640 36.393004 0.376765 0.000000 0.000000 0.000000 
-0.036306 0.953787 0.010448 -1.122203 41.466106 1.644103 8.202032 -1.116036 3.857079 -4.874385 -0.609758 -10.420557 7.460617 19.366206 21.046527 0.000000 0.000000 0.000000 -5.917760 -0.763679 2.202329 4.097866 -0.995792 -9.363918 -6.051084 -10.042581 22.939603 0.000000 0.000000 0.000000 4.447702 -1.860912 14.055844 -6.205639 1.933721 -28.481869 -0.989429 6.016271 28.413952 11.963748 -1.267932 -22.545918 0.000000 0.000000 0.000000 -11.158649 -10.249182 -1.864394 -54.011848 -7.436244 -5.537609 -3.508493 -25.380499 0.042797 0.000000 0.000000 0.000000 25.751945 -5.903959 4.955962 57.263669 31.590249 6.612705 -15.510481 37.471044 0.207081 0.000000 0.000000 0.000000 
